<svg xmlns="http://www.w3.org/2000/svg" viewBox="0 0 64 64" role="img" aria-labelledby="title">
  <title>BookWorm</title>
  <defs>
    <linearGradient id="bookworm-sky" x1="12" y1="8" x2="52" y2="56" gradientUnits="userSpaceOnUse">
      <stop offset="0" stop-color="#86c9ff" />
      <stop offset="1" stop-color="#5ca7de" />
    </linearGradient>
    <linearGradient id="bookworm-gold" x1="18" y1="14" x2="46" y2="46" gradientUnits="userSpaceOnUse">
      <stop offset="0" stop-color="#f0deb0" />
      <stop offset="1" stop-color="#d9c37f" />
    </linearGradient>
  </defs>
  <rect width="64" height="64" rx="16" fill="#08111b" />
  <path
    d="M14 16.5C14 14.567 15.567 13 17.5 13H28c4.068 0 7.738 1.685 10.364 4.395C40.639 14.685 44.309 13 48.377 13H49.5C51.433 13 53 14.567 53 16.5v31.003a1.5 1.5 0 0 1-2.163 1.345c-3.95-1.913-8.628-2.264-12.862-.964l-.975.299-.975-.299c-4.234-1.3-8.912-.949-12.862.964A1.5 1.5 0 0 1 11 47.503V16.5Z"
    fill="url(#bookworm-sky)"
    opacity="0.92"
  />
  <path
    d="M20 20.5h8c3.431 0 6.5 1.428 8.682 3.72C38.864 21.928 41.933 20.5 45.364 20.5H47v21.602c-3.07-.89-6.353-.816-9.38.245l-1.62.568-1.62-.568c-3.027-1.06-6.31-1.135-9.38-.245V20.5Z"
    fill="#08111b"
    opacity="0.44"
  />
  <path
    d="M32 18.5v25"
    stroke="url(#bookworm-gold)"
    stroke-linecap="round"
    stroke-width="2.5"
  />
  <path
    d="M24 25h4.5M24 30h5.5M35.5 25H40M35.5 30H41"
    stroke="url(#bookworm-gold)"
    stroke-linecap="round"
    stroke-width="2"
  />
  <circle cx="49" cy="17" r="2" fill="#d9c37f" />
</svg>